<svg viewBox="0 0 184 139" xmlns="http://www.w3.org/2000/svg" fill-rule="evenodd" clip-rule="evenodd" stroke-linejoin="round" stroke-miterlimit="2" role="img" aria-label="25 Bridges">
  <rect width="184" height="139" fill="#2D318B"/>
  <g fill="white">
    <path d="m95.912 61.555c-.754.002-9.065.025-9.422-.02-.443-.056-.755-1.866-6.097-6.95-28.052-26.692-68.22-28.179-68.265-28.217-.392-.325-.32-4.9-.052-5.043.741-.395 32.858.006 61.555 13.454 17.141 8.032 16.647 10.305 18.006 9.413 5.018-3.292 4.942-3.41 13.573-7.849 27.72-14.258 63.315-15.637 64.661-15.082.474.195.32 4.853.108 5.067-.331.334-23.215.888-46.027 12.769-21.294 11.091-27.86 22.279-28.04 22.458z"/>
    <path d="m163.552 15.562c.463-.039 3.243-.27 5.791-.368 1.058-.041.797 1.442.78 3.024-.001.071-.007.663-.545.698-14.873.968-38.892 2.257-68.311 17.756-9.696 5.108-9.564 6.426-10.773 5.633-35.51-23.285-75.538-23.1-78.141-23.451-.628-.085-.651-3.441-.038-3.604.443-.118 5.415.229 7.25.391 42.049 3.726 68.456 22.267 70.73 23.698 1.122.706 1.599-.115 3.379-1.247 32.501-20.671 69.715-22.516 69.878-22.531z"/>
    <path d="m88.053 99.818c13.366 2.52 10.209 17.665 5.536 22.075-4.444 4.194-9.94 3.412-15.17 3.473-1.379.016-1.159-.426-1.115-.514 1.216-2.441 1.03-2.56 1.039-17.646.003-4.779-.084-4.794-1.044-7.033-.294-.686 1.795-.469 2.566-.473 5.839-.026 5.832-.076 8.187.117z"/>
    <path d="m38.614 99.807c8.552 1.712 5.76 9.469 3.051 11.382-1.587 1.12 1.896.496 3.748 3.958 1.125 2.103 2.559 9.993-9.923 10.175-.638.009-6.63.096-7.978.047-.881-.032.637-1.469.739-3.934.016-.396.083-15.86.005-17.847-.092-2.341-1.517-3.842-.727-3.87 5.706-.204 10.2.04 11.086.088z"/>
    <path d="m68.012 125.075c-.073.141-.146.282-.219.423-6.334.601-6.306-.75-9.849-6.008-3.907-5.797-4.116-6.481-4.133-6.482-.617-.005-.418.383-.303 7.705.062 3.957 1.976 4.513.775 4.706-.495.08-.494-.086-6.267-.019-1.286.015.485-1.157.565-3.962.043-1.526.013-17.165-.025-17.853-.153-2.828-1.566-3.863-.529-3.879 11.129-.171 12.03.202 12.991.6 6.026 2.495 3.803 9.998-.433 11.759-1.036.431-1.681.378-1.108 1.347 4.737 8.013 7.701 10.861 8.534 11.661z"/>
    <path d="m148.117 99.275c.409.014 3.429.119 5.063.701 1.095.39 2.288 1.026 2.372 1.454.096.487-1.857 5.195-1.921 5.259-.485.487-.493-.034-1.749-1.053-5.815-4.717-10.39-3.542-8.79-1.107 3.798 5.78 16.525 9.561 13.591 16.375-3.136 7.283-16.51 5.164-18.109 1.696-.186-.402-.076-.482 3.563-4.242.381-.394 1.217.657 1.291.75.39.49 2.906 3.654 6.859 3.772 8.571.256-5.209-8.883-8.671-12.307-.456-.451-4.108-4.062-1.381-7.892 2.58-3.623 7.182-3.373 7.881-3.406z"/>
    <path d="m108.809 99.293c.425-.012 3.471-.097 5.289.478.185.059 4.667 1.703 3.577 3.053-2.87 3.556-2.847 3.573-3.117 3.864-.613.66-.652.032-1.184-.677-2.678-3.575-8.174-3.452-9.407-2.684-2.614 1.629-1.124 19.521 8.937 19.621 1.712.017 1.234-.763 1.228-2.477-.022-6.369-1.52-6.289-1.171-6.707.211-.253.262-.107 1.874-.097 3.592.022 5.183-.259 4.739.491-1.566 2.648-1.042 4.573-1.149 7.998-.032 1.015-3.83 4.291-9.868 3.687-12.537-1.255-11.303-19.806-5.688-24.317 2.742-2.203 5.029-2.105 5.94-2.233z"/>
    <path d="m126.412 99.707c10.001-.006 9.989-.035 10.858-.024.788.01.231 1.164-.667 3.687-.936 2.63-1.64-1.164-4.884-1.173-4.138-.011-4.868-.218-4.889.666-.015.638-.171 7.38.025 7.976.104.315.197.457 4.142.278 2.648-.12 3.661-1.76 3.707-.804.017.346.15 3.155.03 4.333-.007.072-.042.408-.904-.094-1.932-1.125-6.767-1.005-6.951-.602-.272.598-.141.609-.072 8.21.008.865.522.692 4.912.678 3.047-.01 3.571-2.743 4.349-2.137.181.141 1.67 4.188 1.655 4.35-.03.334-.208.324-7.693.316-8.954-.01-9.65.386-9.362-.305.643-1.546 1.199-1.444 1.188-5.797-.04-16.036.289-16.154-1.003-19.047-.289-.646.311-.48 5.56-.511z"/>
    <path d="m68.971 125.354c-.02-.108-.133-.183-.153-.29-.023-.121.83-1.176 1.06-3.154.041-.35.02-17.575-.002-18.075-.146-3.273-1.736-4.077-.625-4.129.483-.023 3.641-.17 6.044-.019.688.043-.129 1.042-.381 1.775-.444 1.293-.532 1.548-.479 17.081.021 6.2 1.198 5.981 1.199 6.51.001.534-.306.536-6.663.301z"/>
    <path d="m95.771 90.424c.623.06 5.036 1.011 3.835-2.495-.843-2.462-5.664-3.771-5.726-4.6-.013-.181.004-6.213.009-6.265.037-.469.367-.537.686-.54.599-.007 7.058-.082 7.492-.002.428.079.331.501.32.55-.726 3.155-1.049 3.206-1.254 3.041-.656-.528-.762-1.666-4.152-1.414-.588.044-1.628 2.736-.45 3.112 3.003.96 10.185 3.173 4.763 9.205-4.802 5.341-8.911-.54-8.643-.93.005-.008.02-.152 3.121.338z"/>
    <path d="m83.47 84.527c.367-.519 2.345-3.189 2.861-4.117 2.102-3.785-1.679-2.445-2.802-1.137-.511.595-.766 1.143-.776 1.155-.447.528-1.173-1.771-1.421-2.41-.821-2.119 6.482-3.043 8.596.771 1.565 2.824-4.512 8.864-4.217 9.584.108.263 1.08.151 1.876.127 1.775-.053 2.374-2.899 3.019-1.26.533 1.355 1.325 2.743.348 2.737-7.684-.045-10.168.021-10.402-.024-.484-.093-.697-.59 2.918-5.426z"/>
    <path d="m100.606 69.541c-19.109-.038-19.421.173-19.577-.427-.457-1.76.366-1.781.515-1.785 1.177-.03 1.17.152 14.721.133 2.313-.003 2.294.143 4.587-.114 1.191-.134 1.148.32 1.086 1.506-.048.916-.415.663-1.332.687z"/>
    <path d="m82.364 66.675c-.001-.045-.157-1.615.162-1.906.151-.139 1.102-.106 1.198-.103 8.263.279 8.248.099 16.161-.011.975-.014.755.98.676 2.026-1.385.233-1.394.174-17.551.136-.344-.056-.324-.042-.646-.141z"/>
    <path d="m84.267 64.025c-.036-1.357-.095-1.354.016-1.646.012-.031.193-.258.405-.27 2.41-.139 2.393.096 4.824.097 8.198.003 8.28-.417 8.867-.019.434.294.196.404.084 1.863l-.354.11c-5.835-.004-5.814-.02-13.169.001-.225-.045-.449-.09-.674-.136z"/>
    <path d="m84.267 64.025c.225.045.449.09.674.136-.186.084-.078.184-.252.263-.018.008-.043.019-.241-.04-.424-.126-.145-.289-.18-.359z"/>
    <path d="m82.364 66.675c.322.099.301.085.646.141-.007.003-.125.323-.491.205-.397-.128-.127-.286-.155-.347z"/>
  </g>
  <g fill="#2D318B">
    <path d="m85.167 102.211c.514.097 2.966.103 5.268 2.857 3.244 3.88 3.789 17.644-6.469 17.742-.831.008-.642-.508-.656-13.432-.007-6.83-.11-7.11.426-7.175.114-.014.106.001 1.43.008z"/>
    <path d="m39.325 121.876c-1.101.451-1.52.929-5.525.78-.899-.033-.492-.572-.628-8.939-.02-1.262.803-1.019 2.552-.9 3.784.257 4.77 2.462 4.957 2.881 1.77 3.96-.944 5.885-1.357 6.178z"/>
    <path d="m58.596 109.813c-.29.245-1.928 1.63-4.531 1.43-.651-.05-.696-.375-.572-8.138.003-.212-.39-1.219 2.24-.865 2.761.372 6.579 2.517 2.862 7.573z"/>
    <path d="m36.936 110.582c-.281.098-3.681 1.285-3.722.012-.022-.658-.249-7.608.078-8.231.212-.405 7.871-.814 6.089 5.336-.526 1.816-2.181 2.736-2.445 2.883z"/>
  </g>
</svg>
