<svg viewBox="0 0 184 63" xmlns="http://www.w3.org/2000/svg" fill-rule="evenodd" clip-rule="evenodd" stroke-linejoin="round" stroke-miterlimit="2" role="img" aria-label="25 Bridges">
  <defs>
    <mask id="bridges-logo-mask" maskUnits="userSpaceOnUse" x="0" y="0" width="184" height="139">
      <rect width="184" height="139" fill="black"></rect>
      <g fill="white">
      <path d="m95.912 61.555c-.754.002-9.065.025-9.422-.02-.443-.056-.755-1.866-6.097-6.95-28.052-26.692-68.22-28.179-68.265-28.217-.392-.325-.32-4.9-.052-5.043.741-.395 32.858.006 61.555 13.454 17.141 8.032 16.647 10.305 18.006 9.413 5.018-3.292 4.942-3.41 13.573-7.849 27.72-14.258 63.315-15.637 64.661-15.082.474.195.32 4.853.108 5.067-.331.334-23.215.888-46.027 12.769-21.294 11.091-27.86 22.279-28.04 22.458z"></path>
      <path d="m163.552 15.562c.463-.039 3.243-.27 5.791-.368 1.058-.041.797 1.442.78 3.024-.001.071-.007.663-.545.698-14.873.968-38.892 2.257-68.311 17.756-9.696 5.108-9.564 6.426-10.773 5.633-35.51-23.285-75.538-23.1-78.141-23.451-.628-.085-.651-3.441-.038-3.604.443-.118 5.415.229 7.25.391 42.049 3.726 68.456 22.267 70.73 23.698 1.122.706 1.599-.115 3.379-1.247 32.501-20.671 69.715-22.516 69.878-22.531z"></path>
      </g>
    </mask>
  </defs>
  <rect width="184" height="139" fill="#FBFAF6" mask="url(#bridges-logo-mask)"></rect>
</svg>
